<svg width="80" height="81" viewBox="0 0 80 81" fill="none" xmlns="http://www.w3.org/2000/svg">
<path d="M23.1186 39.2182L22.7119 34.4182V30.0545L23.9322 26.1273L26.3729 21.3273M42.2373 48.8182L39.7966 53.6182L37.3559 57.9818L34.1017 61.4727L29.6271 64.9636L26.3729 66.7091H21.8983L16.2034 64.9636L11.7288 63.2182L9.28814 60.1636L7.66102 54.4909L6.0339 48.8182L4.81356 42.7091L4 34.8545L4.81356 27.4364L6.44068 21.3273L8.0678 16.0909L10.9153 10.4182L14.5763 6.49091L18.6441 3.87273L23.1186 3H28.8136L34.1017 3.87273L38.1695 5.61818L42.2373 7.36364L43.4576 9.98182L43.8644 13.4727L44.2712 16.5273L49.9661 21.3273L53.2203 25.2545L56.8814 27.4364L61.7627 30.9273L66.6441 35.2909L70.3051 37.9091L76 42.2727L73.9661 47.5091L70.7119 53.6182L65.4237 59.7273L60.5424 65.8364L57.6949 70.2L55.2542 75L52 71.5091L49.1525 64.9636L47.1186 57.9818L45.4915 51.8727L43.0508 46.6364L42.2373 48.8182Z" stroke="#EBEBEB" stroke-width="6"/>
</svg>
