<svg width="79" height="81" viewBox="0 0 79 81" fill="none" xmlns="http://www.w3.org/2000/svg">
<path d="M21.8571 21.905L21.4286 28.3408L21 34.7765V40.0056M36.8571 11.0447L34.7143 8.22905L31.7143 5.41341L28.7143 3.80447L25.7143 3H21.8571L18.8571 3.80447L15.8571 4.60894L12.4286 6.21788L9 8.63129L6.42857 11.0447L5.14286 14.2626L4.28571 19.8939L3.42857 25.1229L3 31.1564V38.7989L3.42857 46.4413L5.14286 52.4749L7.28571 55.2905L9.42857 58.1061L12 61.324L15.8571 65.3464L20.1429 67.3575L24 67.7598L27.4286 67.3575L30.8571 65.7486L33 62.933L34.2857 59.3129L35.5714 54.8883L36.8571 50.8659L39.8571 42.0168L43.7143 50.8659L46.2857 55.6927L48.4286 60.9218L51.4286 66.9553L56.5714 75L61.7143 67.3575L65.5714 59.7151L69 51.6704L71.1429 45.6369L72.4286 42.419L75 37.5922L72 33.9721L66.4286 29.9497L61.7143 26.7318L55.7143 22.7095L50.1429 19.4916L44.1429 15.8715L40.2857 13.4581L36.8571 11.0447Z" stroke="#EBEBEB" stroke-width="6"/>
</svg>
