<svg width="74" height="74" viewBox="0 0 74 74" fill="none" xmlns="http://www.w3.org/2000/svg">
<path d="M19.8571 19.905L19.4286 26.3408L19 32.7765V38.0056M34.8571 9.04469L32.7143 6.22905L29.7143 3.41341L26.7143 1.80447L23.7143 1H19.8571L16.8571 1.80447L13.8571 2.60894L10.4286 4.21788L7 6.63129L4.42857 9.04469L3.14286 12.2626L2.28571 17.8939L1.42857 23.1229L1 29.1564V36.7989L1.42857 44.4413L3.14286 50.4749L5.28571 53.2905L7.42857 56.1061L10 59.324L13.8571 63.3464L18.1429 65.3575L22 65.7598L25.4286 65.3575L28.8571 63.7486L31 60.933L32.2857 57.3129L33.5714 52.8883L34.8571 48.8659L37.8571 40.0168L41.7143 48.8659L44.2857 53.6927L46.4286 58.9218L49.4286 64.9553L54.5714 73L59.7143 65.3575L63.5714 57.7151L67 49.6704L69.1429 43.6369L70.4286 40.419L73 35.5922L70 31.9721L64.4286 27.9497L59.7143 24.7318L53.7143 20.7095L48.1429 17.4916L42.1429 13.8715L38.2857 11.4581L34.8571 9.04469Z" stroke="black"/>
</svg>
