<svg width="74" height="74" viewBox="0 0 74 74" fill="none" xmlns="http://www.w3.org/2000/svg">
<path d="M20.1186 37.2182L19.7119 32.4182V28.0545L20.9322 24.1273L23.3729 19.3273M39.2373 46.8182L36.7966 51.6182L34.3559 55.9818L31.1017 59.4727L26.6271 62.9636L23.3729 64.7091H18.8983L13.2034 62.9636L8.72881 61.2182L6.28814 58.1636L4.66102 52.4909L3.0339 46.8182L1.81356 40.7091L1 32.8545L1.81356 25.4364L3.44068 19.3273L5.0678 14.0909L7.91525 8.41818L11.5763 4.49091L15.6441 1.87273L20.1186 1H25.8136L31.1017 1.87273L35.1695 3.61818L39.2373 5.36364L40.4576 7.98182L40.8644 11.4727L41.2712 14.5273L46.9661 19.3273L50.2203 23.2545L53.8814 25.4364L58.7627 28.9273L63.6441 33.2909L67.3051 35.9091L73 40.2727L70.9661 45.5091L67.7119 51.6182L62.4237 57.7273L57.5424 63.8364L54.6949 68.2L52.2542 73L49 69.5091L46.1525 62.9636L44.1186 55.9818L42.4915 49.8727L40.0508 44.6364L39.2373 46.8182Z" stroke="black"/>
</svg>
