<svg width="79" height="88" viewBox="0 0 79 88" fill="none" xmlns="http://www.w3.org/2000/svg">
<path d="M48.6126 4L44.466 5.42222L42.2042 7.91111L41.0733 11.8222L40.6963 16.0889L41.0733 20.7111L41.4503 26.7556L41.8272 31.7333L42.2042 36.7111L43.3351 40.2667L43.712 45.6L41.8272 42.4L38.8115 39.9111L35.7958 38.1333L33.1571 36.3556L31.2723 34.2222L30.5183 31.7333L29.7644 28.8889L29.0105 27.1111L26.7487 26.7556L22.6021 27.1111L19.5864 27.8222L14.6859 30.3111L9.78534 33.1556L6.01571 35.2889L3 37.4222V39.9111V43.8222L4.13089 47.0222L6.01571 49.1556L7.90052 50.9333L10.1623 53.4222L13.178 57.3333L14.6859 60.5333L19.5864 64.8L22.9791 68.3556L25.2408 71.5556L28.6335 74.7556L32.7801 77.6L35.7958 79.3778L38.4346 80.4444L42.5812 82.2222L45.9738 84L47.4817 83.6444L49.3665 82.9333L51.6283 81.5111L54.267 79.3778L56.5288 76.1778L59.9215 70.8444L62.9372 65.1556L66.3298 59.8222L68.9686 55.2L71.9843 49.5111L73.8691 45.9556L75 43.4667L74.623 40.9778L73.4921 38.8444L71.2304 37.0667L68.5916 34.2222L65.5759 31.0222L62.5602 27.1111L61.8063 23.2L61.4293 19.6444V16.0889V11.8222L61.0524 8.62222L60.2984 6.48889L56.5288 5.42222L52.7592 4.71111L48.6126 4Z" stroke="#3C3C3C" stroke-width="6"/>
</svg>
