<svg width="74" height="82" viewBox="0 0 74 82" fill="none" xmlns="http://www.w3.org/2000/svg">
<path d="M46.6126 1L42.466 2.42222L40.2042 4.91111L39.0733 8.82222L38.6963 13.0889L39.0733 17.7111L39.4503 23.7556L39.8272 28.7333L40.2042 33.7111L41.3351 37.2667L41.712 42.6L39.8272 39.4L36.8115 36.9111L33.7958 35.1333L31.1571 33.3556L29.2723 31.2222L28.5183 28.7333L27.7644 25.8889L27.0105 24.1111L24.7487 23.7556L20.6021 24.1111L17.5864 24.8222L12.6859 27.3111L7.78534 30.1556L4.01571 32.2889L1 34.4222V36.9111V40.8222L2.13089 44.0222L4.01571 46.1556L5.90052 47.9333L8.1623 50.4222L11.178 54.3333L12.6859 57.5333L17.5864 61.8L20.9791 65.3556L23.2408 68.5556L26.6335 71.7556L30.7801 74.6L33.7958 76.3778L36.4346 77.4444L40.5812 79.2222L43.9738 81L45.4817 80.6444L47.3665 79.9333L49.6283 78.5111L52.267 76.3778L54.5288 73.1778L57.9215 67.8444L60.9372 62.1556L64.3298 56.8222L66.9686 52.2L69.9843 46.5111L71.8691 42.9556L73 40.4667L72.623 37.9778L71.4921 35.8444L69.2304 34.0667L66.5916 31.2222L63.5759 28.0222L60.5602 24.1111L59.8063 20.2L59.4293 16.6444V13.0889V8.82222L59.0524 5.62222L58.2984 3.48889L54.5288 2.42222L50.7592 1.71111L46.6126 1Z" stroke="black"/>
</svg>
