<svg width="74" height="74" viewBox="0 0 74 74" fill="none" xmlns="http://www.w3.org/2000/svg">
<path d="M4.88235 13.1791L3.82353 11.3881L3.47059 10.3134L4.88235 8.8806L7.70588 7.08955L10.1765 5.29851L13.3529 3.86567L15.4706 3.50746L19 3.86567L21.1176 4.58209L23.2353 6.01493H24.6471L27.1176 4.9403L29.5882 3.14925L32.0588 1.71642L34.8824 1.35821L39.4706 1L43 1.35821L47.5882 3.14925L50.7647 5.29851L53.9412 8.16418L54.6471 10.3134L56.7647 12.4627L59.9412 16.0448L63.8235 20.7015L66.6471 25L69.1176 29.6567L71.2353 33.9552L73 37.5373V40.7612L72.2941 46.1343L70.8824 50.791L68.0588 55.806L65.5882 60.1045L61.3529 64.403L57.4706 67.6269L53.2353 71.209L49.3529 73H46.8824L45.1176 70.4925L44.7647 67.2687L44.4118 64.0448L43.3529 60.8209L42.2941 57.2388L41.9412 52.9403L41.2353 47.9254L40.1765 40.7612L39.1176 35.7463L38.7647 31.4478L37.7059 28.5821L36.6471 26.4328L34.8824 25L32.7647 24.6418L29.5882 25L26.4118 25.3582L27.1176 28.2239L26.7647 33.597L26.4118 38.6119L25.3529 44.3433L24.2941 49L23.5882 54.0149L22.5294 57.2388L21.4706 59.7463L19.7059 61.1791H18.2941L16.1765 60.1045L13.3529 57.9552L11.2353 55.806L8.76471 52.9403L6.29412 50.0746L4.17647 47.209L2.41176 43.9851L1 40.403L1.35294 38.2537V35.3881L2.05882 32.1642L3.82353 29.6567L5.94118 25.7164L6.64706 23.5672V20.7015L6.29412 17.4776L5.94118 15.3284L4.88235 13.1791Z" stroke="black"/>
</svg>
