<svg width="79" height="79" viewBox="0 0 79 79" fill="none" xmlns="http://www.w3.org/2000/svg">
<path d="M7.88235 16.1791L6.82353 14.3881L6.47059 13.3134L7.88235 11.8806L10.7059 10.0896L13.1765 8.29851L16.3529 6.86567L18.4706 6.50746L22 6.86567L24.1176 7.58209L26.2353 9.01493H27.6471L30.1176 7.9403L32.5882 6.14925L35.0588 4.71642L37.8824 4.35821L42.4706 4L46 4.35821L50.5882 6.14925L53.7647 8.29851L56.9412 11.1642L57.6471 13.3134L59.7647 15.4627L62.9412 19.0448L66.8235 23.7015L69.6471 28L72.1176 32.6567L74.2353 36.9552L76 40.5373V43.7612L75.2941 49.1343L73.8824 53.791L71.0588 58.806L68.5882 63.1045L64.3529 67.403L60.4706 70.6269L56.2353 74.209L52.3529 76H49.8824L48.1176 73.4925L47.7647 70.2687L47.4118 67.0448L46.3529 63.8209L45.2941 60.2388L44.9412 55.9403L44.2353 50.9254L43.1765 43.7612L42.1176 38.7463L41.7647 34.4478L40.7059 31.5821L39.6471 29.4328L37.8824 28L35.7647 27.6418L32.5882 28L29.4118 28.3582L30.1176 31.2239L29.7647 36.597L29.4118 41.6119L28.3529 47.3433L27.2941 52L26.5882 57.0149L25.5294 60.2388L24.4706 62.7463L22.7059 64.1791H21.2941L19.1765 63.1045L16.3529 60.9552L14.2353 58.806L11.7647 55.9403L9.29412 53.0746L7.17647 50.209L5.41176 46.9851L4 43.403L4.35294 41.2537V38.3881L5.05882 35.1642L6.82353 32.6567L8.94118 28.7164L9.64706 26.5672V23.7015L9.29412 20.4776L8.94118 18.3284L7.88235 16.1791Z" stroke="black" stroke-width="6"/>
</svg>
