<svg width="78" height="78" viewBox="0 0 78 78" fill="none" xmlns="http://www.w3.org/2000/svg">
<path d="M7.02797 12.3237L4.00699 14.9137L3 17.5036V20.6115L4.00699 25.7914L5.51748 32.0072L7.02797 37.705L8.53846 43.4029L12.0629 48.5827L17.0979 55.3165L23.1399 61.5324L27.6713 66.1942L32.7063 69.8201L36.7343 72.4101L40.2587 74.482L44.2867 75H48.8182L52.8462 73.964L57.3776 72.4101L60.3986 69.8201L62.4126 66.1942L65.4336 58.4245L67.4476 49.6187L69.4615 40.295L71.4755 29.4173L72.986 21.1295L73.993 15.4317L75 11.2878V7.66187L73.4895 6.10791L69.965 4.55396L65.9371 4.03597L59.3916 4.55396L54.8601 5.07194L50.3287 4.55396L45.7972 3H41.2657L37.2378 4.03597L36.7343 7.14388L35.7273 11.8058L35.2238 15.4317L34.7203 19.5755L35.2238 23.7194L34.2168 26.8273L31.6993 27.8633L28.6783 27.3453L26.1608 24.7554L24.1469 21.6475L23.1399 18.0216V14.9137L21.6294 12.3237L19.1119 10.7698L16.5944 9.73381L14.0769 10.7698L10.5524 11.8058L7.02797 12.3237Z" stroke="#3C3C3C" stroke-width="6"/>
</svg>
