<svg width="74" height="74" viewBox="0 0 74 74" fill="none" xmlns="http://www.w3.org/2000/svg">
<path d="M5.02797 10.3237L2.00699 12.9137L1 15.5036V18.6115L2.00699 23.7914L3.51748 30.0072L5.02797 35.705L6.53846 41.4029L10.0629 46.5827L15.0979 53.3165L21.1399 59.5324L25.6713 64.1942L30.7063 67.8201L34.7343 70.4101L38.2587 72.482L42.2867 73H46.8182L50.8462 71.964L55.3776 70.4101L58.3986 67.8201L60.4126 64.1942L63.4336 56.4245L65.4476 47.6187L67.4615 38.295L69.4755 27.4173L70.986 19.1295L71.993 13.4317L73 9.28777V5.66187L71.4895 4.10791L67.965 2.55396L63.9371 2.03597L57.3916 2.55396L52.8601 3.07194L48.3287 2.55396L43.7972 1H39.2657L35.2378 2.03597L34.7343 5.14388L33.7273 9.80575L33.2238 13.4317L32.7203 17.5755L33.2238 21.7194L32.2168 24.8273L29.6993 25.8633L26.6783 25.3453L24.1608 22.7554L22.1469 19.6475L21.1399 16.0216V12.9137L19.6294 10.3237L17.1119 8.76978L14.5944 7.73381L12.0769 8.76978L8.55245 9.80575L5.02797 10.3237Z" stroke="black"/>
</svg>
