<svg width="74" height="74" viewBox="0 0 74 74" fill="none" xmlns="http://www.w3.org/2000/svg">
<path d="M1 17.6154V10.8462L3.14925 7.15385L6.37313 5.92308H9.59702L12.8209 6.53846H16.0448L19.806 7.15385L22.4925 8.38462L23.5672 12.6923L24.6418 18.2308L26.791 24.3846L30.0149 25.6154L32.7015 19.4615L34.3134 13.3077L35.3881 7.15385L35.9254 3.46154L38.6119 1.61538L42.3731 1L47.7463 1.61538L53.1194 2.84615L57.4179 3.46154H61.1791L65.4776 4.07692L69.2388 6.53846L71.3881 11.4615L72.4627 15.7692L73 20.6923L72.4627 25L71.3881 31.1538L70.8508 35.4615L69.2388 40.3846L68.1642 45.3077L66.5522 48.3846L63.8657 53.3077L60.1045 59.4615L56.3433 65L52.5821 69.9231L48.8209 71.7692L43.4478 72.3846L39.6866 73H34.3134H28.9403L24.6418 71.1538L20.8806 67.4615L16.5821 63.1538L12.8209 58.8462L9.59702 53.3077L7.44776 47.7692L6.37313 42.8462L5.29851 36.6923L3.68657 31.1538L2.07463 24.3846L1 17.6154Z" stroke="black"/>
</svg>
