<svg width="79" height="79" viewBox="0 0 79 79" fill="none" xmlns="http://www.w3.org/2000/svg">
<path d="M3 20.6154V13.8462L5.14925 10.1538L8.37313 8.92308H11.597L14.8209 9.53846H18.0448L21.806 10.1538L24.4925 11.3846L25.5672 15.6923L26.6418 21.2308L28.791 27.3846L32.0149 28.6154L34.7015 22.4615L36.3134 16.3077L37.3881 10.1538L37.9254 6.46154L40.6119 4.61538L44.3731 4L49.7463 4.61538L55.1194 5.84615L59.4179 6.46154H63.1791L67.4776 7.07692L71.2388 9.53846L73.3881 14.4615L74.4627 18.7692L75 23.6923L74.4627 28L73.3881 34.1538L72.8508 38.4615L71.2388 43.3846L70.1642 48.3077L68.5522 51.3846L65.8657 56.3077L62.1045 62.4615L58.3433 68L54.5821 72.9231L50.8209 74.7692L45.4478 75.3846L41.6866 76H36.3134H30.9403L26.6418 74.1538L22.8806 70.4615L18.5821 66.1538L14.8209 61.8462L11.597 56.3077L9.44776 50.7692L8.37313 45.8462L7.29851 39.6923L5.68657 34.1538L4.07463 27.3846L3 20.6154Z" stroke="white" stroke-width="6"/>
</svg>
