{
    "asset" : {
        "generator" : "Khronos glTF Blender I/O v3.4.50",
        "version" : "2.0"
    },
    "scene" : 0,
    "scenes" : [
        {
            "name" : "Scene",
            "nodes" : [
                0,
                1,
                2,
                3,
                4,
                5,
                6,
                7,
                8,
                9
            ]
        }
    ],
    "nodes" : [
        {
            "mesh" : 0,
            "name" : "J.001"
        },
        {
            "mesh" : 1,
            "name" : "J.002"
        },
        {
            "mesh" : 2,
            "name" : "J.003"
        },
        {
            "mesh" : 3,
            "name" : "J.004"
        },
        {
            "mesh" : 4,
            "name" : "thic j"
        },
        {
            "mesh" : 5,
            "name" : "J.006"
        },
        {
            "mesh" : 6,
            "name" : "cutj"
        },
        {
            "mesh" : 7,
            "name" : "J.005"
        },
        {
            "mesh" : 8,
            "name" : "CLEAN J"
        },
        {
            "mesh" : 9,
            "name" : "CLEAN J.001"
        }
    ],
    "meshes" : [
        {
            "name" : "Text.003",
            "primitives" : [
                {
                    "attributes" : {
                        "POSITION" : 0,
                        "TEXCOORD_0" : 1,
                        "NORMAL" : 2
                    },
                    "indices" : 3
                }
            ]
        },
        {
            "name" : "Text.004",
            "primitives" : [
                {
                    "attributes" : {
                        "POSITION" : 4,
                        "TEXCOORD_0" : 5,
                        "NORMAL" : 6
                    },
                    "indices" : 7
                }
            ]
        },
        {
            "name" : "Text.001",
            "primitives" : [
                {
                    "attributes" : {
                        "POSITION" : 8,
                        "NORMAL" : 9
                    },
                    "indices" : 10
                }
            ]
        },
        {
            "name" : "Text.003",
            "primitives" : [
                {
                    "attributes" : {
                        "POSITION" : 11,
                        "NORMAL" : 12
                    },
                    "indices" : 13
                }
            ]
        },
        {
            "name" : "Text.004",
            "primitives" : [
                {
                    "attributes" : {
                        "POSITION" : 14,
                        "NORMAL" : 15
                    },
                    "indices" : 16
                }
            ]
        },
        {
            "name" : "Text.005",
            "primitives" : [
                {
                    "attributes" : {
                        "POSITION" : 17,
                        "NORMAL" : 18
                    },
                    "indices" : 19
                }
            ]
        },
        {
            "name" : "Text.006",
            "primitives" : [
                {
                    "attributes" : {
                        "POSITION" : 20,
                        "NORMAL" : 21
                    },
                    "indices" : 22
                }
            ]
        },
        {
            "name" : "Text.007",
            "primitives" : [
                {
                    "attributes" : {
                        "POSITION" : 23,
                        "NORMAL" : 24
                    },
                    "indices" : 25
                }
            ]
        },
        {
            "name" : "Text.002",
            "primitives" : [
                {
                    "attributes" : {
                        "POSITION" : 26,
                        "NORMAL" : 27
                    },
                    "indices" : 28
                }
            ]
        },
        {
            "name" : "Text.008",
            "primitives" : [
                {
                    "attributes" : {
                        "POSITION" : 29,
                        "NORMAL" : 30
                    },
                    "indices" : 31
                }
            ]
        }
    ],
    "accessors" : [
        {
            "bufferView" : 0,
            "componentType" : 5126,
            "count" : 203,
            "max" : [
                0.3397541046142578,
                0,
                0.01024590153247118
            ],
            "min" : [
                -0.008196720853447914,
                0,
                -0.5483606457710266
            ],
            "type" : "VEC3"
        },
        {
            "bufferView" : 1,
            "componentType" : 5126,
            "count" : 203,
            "type" : "VEC2"
        },
        {
            "bufferView" : 2,
            "componentType" : 5126,
            "count" : 203,
            "type" : "VEC3"
        },
        {
            "bufferView" : 3,
            "componentType" : 5123,
            "count" : 438,
            "type" : "SCALAR"
        },
        {
            "bufferView" : 4,
            "componentType" : 5126,
            "count" : 11204,
            "max" : [
                4.294844150543213,
                0.8799999356269836,
                0.832475483417511
            ],
            "min" : [
                -0.9244284629821777,
                -0.8799999356269836,
                -6.213606357574463
            ],
            "type" : "VEC3"
        },
        {
            "bufferView" : 5,
            "componentType" : 5126,
            "count" : 11204,
            "type" : "VEC2"
        },
        {
            "bufferView" : 6,
            "componentType" : 5126,
            "count" : 11204,
            "type" : "VEC3"
        },
        {
            "bufferView" : 7,
            "componentType" : 5123,
            "count" : 61140,
            "type" : "SCALAR"
        },
        {
            "bufferView" : 8,
            "componentType" : 5126,
            "count" : 620,
            "max" : [
                4.557985305786133,
                0.8950578570365906,
                1.3742130994796753
            ],
            "min" : [
                -2.0751278400421143,
                -1.083342432975769,
                -6.115475177764893
            ],
            "type" : "VEC3"
        },
        {
            "bufferView" : 9,
            "componentType" : 5126,
            "count" : 620,
            "type" : "VEC3"
        },
        {
            "bufferView" : 10,
            "componentType" : 5123,
            "count" : 840,
            "type" : "SCALAR"
        },
        {
            "bufferView" : 11,
            "componentType" : 5126,
            "count" : 1936,
            "max" : [
                4.68341588973999,
                1.2000716924667358,
                1.526327133178711
            ],
            "min" : [
                -2.5700623989105225,
                -1.2888675928115845,
                -6.738085746765137
            ],
            "type" : "VEC3"
        },
        {
            "bufferView" : 12,
            "componentType" : 5126,
            "count" : 1936,
            "type" : "VEC3"
        },
        {
            "bufferView" : 13,
            "componentType" : 5123,
            "count" : 2904,
            "type" : "SCALAR"
        },
        {
            "bufferView" : 14,
            "componentType" : 5126,
            "count" : 1936,
            "max" : [
                4.68341588973999,
                1.6232396364212036,
                1.526327133178711
            ],
            "min" : [
                -3.435060977935791,
                -1.2888675928115845,
                -6.738085746765137
            ],
            "type" : "VEC3"
        },
        {
            "bufferView" : 15,
            "componentType" : 5126,
            "count" : 1936,
            "type" : "VEC3"
        },
        {
            "bufferView" : 16,
            "componentType" : 5123,
            "count" : 2904,
            "type" : "SCALAR"
        },
        {
            "bufferView" : 17,
            "componentType" : 5126,
            "count" : 824,
            "max" : [
                4.835049629211426,
                1.1695889234542847,
                1.4503934383392334
            ],
            "min" : [
                -3.3862931728363037,
                -1.6727368831634521,
                -8.779411315917969
            ],
            "type" : "VEC3"
        },
        {
            "bufferView" : 18,
            "componentType" : 5126,
            "count" : 824,
            "type" : "VEC3"
        },
        {
            "bufferView" : 19,
            "componentType" : 5123,
            "count" : 1122,
            "type" : "SCALAR"
        },
        {
            "bufferView" : 20,
            "componentType" : 5126,
            "count" : 612,
            "max" : [
                4.5068440437316895,
                1.4759236574172974,
                0.7140680551528931
            ],
            "min" : [
                -3.0686135292053223,
                -1.0168766975402832,
                -7.60533332824707
            ],
            "type" : "VEC3"
        },
        {
            "bufferView" : 21,
            "componentType" : 5126,
            "count" : 612,
            "type" : "VEC3"
        },
        {
            "bufferView" : 22,
            "componentType" : 5123,
            "count" : 930,
            "type" : "SCALAR"
        },
        {
            "bufferView" : 23,
            "componentType" : 5126,
            "count" : 804,
            "max" : [
                4.843997478485107,
                1.475903868675232,
                0.7140523195266724
            ],
            "min" : [
                -3.068610668182373,
                -1.2651411294937134,
                -7.9968695640563965
            ],
            "type" : "VEC3"
        },
        {
            "bufferView" : 24,
            "componentType" : 5126,
            "count" : 804,
            "type" : "VEC3"
        },
        {
            "bufferView" : 25,
            "componentType" : 5123,
            "count" : 1356,
            "type" : "SCALAR"
        },
        {
            "bufferView" : 26,
            "componentType" : 5126,
            "count" : 400,
            "max" : [
                4.23704195022583,
                1.0499712228775024,
                1.106601357460022
            ],
            "min" : [
                -2.207906484603882,
                -1.0715185403823853,
                -6.287761688232422
            ],
            "type" : "VEC3"
        },
        {
            "bufferView" : 27,
            "componentType" : 5126,
            "count" : 400,
            "type" : "VEC3"
        },
        {
            "bufferView" : 28,
            "componentType" : 5123,
            "count" : 588,
            "type" : "SCALAR"
        },
        {
            "bufferView" : 29,
            "componentType" : 5126,
            "count" : 506,
            "max" : [
                4.23704195022583,
                1.0499712228775024,
                1.106601357460022
            ],
            "min" : [
                -2.207906484603882,
                -1.0715185403823853,
                -6.287761688232422
            ],
            "type" : "VEC3"
        },
        {
            "bufferView" : 30,
            "componentType" : 5126,
            "count" : 506,
            "type" : "VEC3"
        },
        {
            "bufferView" : 31,
            "componentType" : 5123,
            "count" : 798,
            "type" : "SCALAR"
        }
    ],
    "bufferViews" : [
        {
            "buffer" : 0,
            "byteLength" : 2436,
            "byteOffset" : 0,
            "target" : 34962
        },
        {
            "buffer" : 0,
            "byteLength" : 1624,
            "byteOffset" : 2436,
            "target" : 34962
        },
        {
            "buffer" : 0,
            "byteLength" : 2436,
            "byteOffset" : 4060,
            "target" : 34962
        },
        {
            "buffer" : 0,
            "byteLength" : 876,
            "byteOffset" : 6496,
            "target" : 34963
        },
        {
            "buffer" : 0,
            "byteLength" : 134448,
            "byteOffset" : 7372,
            "target" : 34962
        },
        {
            "buffer" : 0,
            "byteLength" : 89632,
            "byteOffset" : 141820,
            "target" : 34962
        },
        {
            "buffer" : 0,
            "byteLength" : 134448,
            "byteOffset" : 231452,
            "target" : 34962
        },
        {
            "buffer" : 0,
            "byteLength" : 122280,
            "byteOffset" : 365900,
            "target" : 34963
        },
        {
            "buffer" : 0,
            "byteLength" : 7440,
            "byteOffset" : 488180,
            "target" : 34962
        },
        {
            "buffer" : 0,
            "byteLength" : 7440,
            "byteOffset" : 495620,
            "target" : 34962
        },
        {
            "buffer" : 0,
            "byteLength" : 1680,
            "byteOffset" : 503060,
            "target" : 34963
        },
        {
            "buffer" : 0,
            "byteLength" : 23232,
            "byteOffset" : 504740,
            "target" : 34962
        },
        {
            "buffer" : 0,
            "byteLength" : 23232,
            "byteOffset" : 527972,
            "target" : 34962
        },
        {
            "buffer" : 0,
            "byteLength" : 5808,
            "byteOffset" : 551204,
            "target" : 34963
        },
        {
            "buffer" : 0,
            "byteLength" : 23232,
            "byteOffset" : 557012,
            "target" : 34962
        },
        {
            "buffer" : 0,
            "byteLength" : 23232,
            "byteOffset" : 580244,
            "target" : 34962
        },
        {
            "buffer" : 0,
            "byteLength" : 5808,
            "byteOffset" : 603476,
            "target" : 34963
        },
        {
            "buffer" : 0,
            "byteLength" : 9888,
            "byteOffset" : 609284,
            "target" : 34962
        },
        {
            "buffer" : 0,
            "byteLength" : 9888,
            "byteOffset" : 619172,
            "target" : 34962
        },
        {
            "buffer" : 0,
            "byteLength" : 2244,
            "byteOffset" : 629060,
            "target" : 34963
        },
        {
            "buffer" : 0,
            "byteLength" : 7344,
            "byteOffset" : 631304,
            "target" : 34962
        },
        {
            "buffer" : 0,
            "byteLength" : 7344,
            "byteOffset" : 638648,
            "target" : 34962
        },
        {
            "buffer" : 0,
            "byteLength" : 1860,
            "byteOffset" : 645992,
            "target" : 34963
        },
        {
            "buffer" : 0,
            "byteLength" : 9648,
            "byteOffset" : 647852,
            "target" : 34962
        },
        {
            "buffer" : 0,
            "byteLength" : 9648,
            "byteOffset" : 657500,
            "target" : 34962
        },
        {
            "buffer" : 0,
            "byteLength" : 2712,
            "byteOffset" : 667148,
            "target" : 34963
        },
        {
            "buffer" : 0,
            "byteLength" : 4800,
            "byteOffset" : 669860,
            "target" : 34962
        },
        {
            "buffer" : 0,
            "byteLength" : 4800,
            "byteOffset" : 674660,
            "target" : 34962
        },
        {
            "buffer" : 0,
            "byteLength" : 1176,
            "byteOffset" : 679460,
            "target" : 34963
        },
        {
            "buffer" : 0,
            "byteLength" : 6072,
            "byteOffset" : 680636,
            "target" : 34962
        },
        {
            "buffer" : 0,
            "byteLength" : 6072,
            "byteOffset" : 686708,
            "target" : 34962
        },
        {
            "buffer" : 0,
            "byteLength" : 1596,
            "byteOffset" : 692780,
            "target" : 34963
        }
    ],
    "buffers" : [
        {
            "byteLength" : 694376,
            "uri" : "data:application/octet-stream;base64,"
        }
    ]
}
