{
    "asset" : {
        "generator" : "Khronos glTF Blender I/O v3.4.50",
        "version" : "2.0"
    },
    "scene" : 0,
    "scenes" : [
        {
            "name" : "Scene",
            "nodes" : [
                0,
                1,
                2,
                3,
                4,
                5,
                6,
                7
            ]
        }
    ],
    "nodes" : [
        {
            "mesh" : 0,
            "name" : "huge j"
        },
        {
            "mesh" : 1,
            "name" : "J.001"
        },
        {
            "mesh" : 2,
            "name" : "J.002"
        },
        {
            "mesh" : 3,
            "name" : "J.003"
        },
        {
            "mesh" : 4,
            "name" : "c"
        },
        {
            "mesh" : 5,
            "name" : "c.002"
        },
        {
            "mesh" : 6,
            "name" : "s",
            "translation" : [
                0.7480062246322632,
                0.15018558502197266,
                -0.4129449427127838
            ]
        },
        {
            "mesh" : 7,
            "name" : "s.001",
            "translation" : [
                0.7480062246322632,
                0.15018558502197266,
                -0.4129449427127838
            ]
        }
    ],
    "meshes" : [
        {
            "name" : "Text.002",
            "primitives" : [
                {
                    "attributes" : {
                        "POSITION" : 0,
                        "NORMAL" : 1
                    },
                    "indices" : 2
                }
            ]
        },
        {
            "name" : "Text.003",
            "primitives" : [
                {
                    "attributes" : {
                        "POSITION" : 3,
                        "TEXCOORD_0" : 4,
                        "NORMAL" : 5
                    },
                    "indices" : 6
                }
            ]
        },
        {
            "name" : "Text.004",
            "primitives" : [
                {
                    "attributes" : {
                        "POSITION" : 7,
                        "TEXCOORD_0" : 8,
                        "NORMAL" : 9
                    },
                    "indices" : 10
                }
            ]
        },
        {
            "name" : "Text.001",
            "primitives" : [
                {
                    "attributes" : {
                        "POSITION" : 11,
                        "NORMAL" : 12
                    },
                    "indices" : 13
                }
            ]
        },
        {
            "name" : "Text",
            "primitives" : [
                {
                    "attributes" : {
                        "POSITION" : 14,
                        "NORMAL" : 15
                    },
                    "indices" : 16
                }
            ]
        },
        {
            "name" : "Text.003",
            "primitives" : [
                {
                    "attributes" : {
                        "POSITION" : 17,
                        "TEXCOORD_0" : 18,
                        "NORMAL" : 19
                    },
                    "indices" : 20
                }
            ]
        },
        {
            "name" : "Text.001",
            "primitives" : [
                {
                    "attributes" : {
                        "POSITION" : 21,
                        "TEXCOORD_0" : 22,
                        "NORMAL" : 23
                    },
                    "indices" : 24
                }
            ]
        },
        {
            "name" : "Text.004",
            "primitives" : [
                {
                    "attributes" : {
                        "POSITION" : 25,
                        "TEXCOORD_0" : 26,
                        "NORMAL" : 27
                    },
                    "indices" : 28
                }
            ]
        }
    ],
    "accessors" : [
        {
            "bufferView" : 0,
            "componentType" : 5126,
            "count" : 1936,
            "max" : [
                4.68341588973999,
                1.2000716924667358,
                1.526327133178711
            ],
            "min" : [
                -2.5700623989105225,
                -1.2888675928115845,
                -6.738085746765137
            ],
            "type" : "VEC3"
        },
        {
            "bufferView" : 1,
            "componentType" : 5126,
            "count" : 1936,
            "type" : "VEC3"
        },
        {
            "bufferView" : 2,
            "componentType" : 5123,
            "count" : 2904,
            "type" : "SCALAR"
        },
        {
            "bufferView" : 3,
            "componentType" : 5126,
            "count" : 203,
            "max" : [
                0.3397541046142578,
                0,
                0.01024590153247118
            ],
            "min" : [
                -0.008196720853447914,
                0,
                -0.5483606457710266
            ],
            "type" : "VEC3"
        },
        {
            "bufferView" : 4,
            "componentType" : 5126,
            "count" : 203,
            "type" : "VEC2"
        },
        {
            "bufferView" : 5,
            "componentType" : 5126,
            "count" : 203,
            "type" : "VEC3"
        },
        {
            "bufferView" : 6,
            "componentType" : 5123,
            "count" : 438,
            "type" : "SCALAR"
        },
        {
            "bufferView" : 7,
            "componentType" : 5126,
            "count" : 11204,
            "max" : [
                4.294844150543213,
                0.8799999356269836,
                0.832475483417511
            ],
            "min" : [
                -0.9244284629821777,
                -0.8799999356269836,
                -6.213606357574463
            ],
            "type" : "VEC3"
        },
        {
            "bufferView" : 8,
            "componentType" : 5126,
            "count" : 11204,
            "type" : "VEC2"
        },
        {
            "bufferView" : 9,
            "componentType" : 5126,
            "count" : 11204,
            "type" : "VEC3"
        },
        {
            "bufferView" : 10,
            "componentType" : 5123,
            "count" : 61140,
            "type" : "SCALAR"
        },
        {
            "bufferView" : 11,
            "componentType" : 5126,
            "count" : 620,
            "max" : [
                4.557985305786133,
                0.8950578570365906,
                1.3742130994796753
            ],
            "min" : [
                -2.0751278400421143,
                -1.083342432975769,
                -6.115475177764893
            ],
            "type" : "VEC3"
        },
        {
            "bufferView" : 12,
            "componentType" : 5126,
            "count" : 620,
            "type" : "VEC3"
        },
        {
            "bufferView" : 13,
            "componentType" : 5123,
            "count" : 840,
            "type" : "SCALAR"
        },
        {
            "bufferView" : 14,
            "componentType" : 5126,
            "count" : 602,
            "max" : [
                0.4025915563106537,
                0.11673051863908768,
                0.06485185772180557
            ],
            "min" : [
                -0.021857988089323044,
                -0.11819204688072205,
                -0.5088009834289551
            ],
            "type" : "VEC3"
        },
        {
            "bufferView" : 15,
            "componentType" : 5126,
            "count" : 602,
            "type" : "VEC3"
        },
        {
            "bufferView" : 16,
            "componentType" : 5123,
            "count" : 864,
            "type" : "SCALAR"
        },
        {
            "bufferView" : 17,
            "componentType" : 5126,
            "count" : 2628,
            "max" : [
                0.432119220495224,
                0.1199958473443985,
                0.08063232898712158
            ],
            "min" : [
                -0.033484820276498795,
                -0.12057291716337204,
                -0.510007381439209
            ],
            "type" : "VEC3"
        },
        {
            "bufferView" : 18,
            "componentType" : 5126,
            "count" : 2628,
            "type" : "VEC2"
        },
        {
            "bufferView" : 19,
            "componentType" : 5126,
            "count" : 2628,
            "type" : "VEC3"
        },
        {
            "bufferView" : 20,
            "componentType" : 5123,
            "count" : 10500,
            "type" : "SCALAR"
        },
        {
            "bufferView" : 21,
            "componentType" : 5126,
            "count" : 18128,
            "max" : [
                1.0975290536880493,
                0.07599999010562897,
                0.046316806226968765
            ],
            "min" : [
                0.07049563527107239,
                -0.07599999010562897,
                -1.2270209789276123
            ],
            "type" : "VEC3"
        },
        {
            "bufferView" : 22,
            "componentType" : 5126,
            "count" : 18128,
            "type" : "VEC2"
        },
        {
            "bufferView" : 23,
            "componentType" : 5126,
            "count" : 18128,
            "type" : "VEC3"
        },
        {
            "bufferView" : 24,
            "componentType" : 5123,
            "count" : 97668,
            "type" : "SCALAR"
        },
        {
            "bufferView" : 25,
            "componentType" : 5126,
            "count" : 18128,
            "max" : [
                1.1224689483642578,
                0.3625187873840332,
                0.1141706332564354
            ],
            "min" : [
                0.023912325501441956,
                -0.22738642990589142,
                -1.37105131149292
            ],
            "type" : "VEC3"
        },
        {
            "bufferView" : 26,
            "componentType" : 5126,
            "count" : 18128,
            "type" : "VEC2"
        },
        {
            "bufferView" : 27,
            "componentType" : 5126,
            "count" : 18128,
            "type" : "VEC3"
        },
        {
            "bufferView" : 28,
            "componentType" : 5123,
            "count" : 97668,
            "type" : "SCALAR"
        }
    ],
    "bufferViews" : [
        {
            "buffer" : 0,
            "byteLength" : 23232,
            "byteOffset" : 0,
            "target" : 34962
        },
        {
            "buffer" : 0,
            "byteLength" : 23232,
            "byteOffset" : 23232,
            "target" : 34962
        },
        {
            "buffer" : 0,
            "byteLength" : 5808,
            "byteOffset" : 46464,
            "target" : 34963
        },
        {
            "buffer" : 0,
            "byteLength" : 2436,
            "byteOffset" : 52272,
            "target" : 34962
        },
        {
            "buffer" : 0,
            "byteLength" : 1624,
            "byteOffset" : 54708,
            "target" : 34962
        },
        {
            "buffer" : 0,
            "byteLength" : 2436,
            "byteOffset" : 56332,
            "target" : 34962
        },
        {
            "buffer" : 0,
            "byteLength" : 876,
            "byteOffset" : 58768,
            "target" : 34963
        },
        {
            "buffer" : 0,
            "byteLength" : 134448,
            "byteOffset" : 59644,
            "target" : 34962
        },
        {
            "buffer" : 0,
            "byteLength" : 89632,
            "byteOffset" : 194092,
            "target" : 34962
        },
        {
            "buffer" : 0,
            "byteLength" : 134448,
            "byteOffset" : 283724,
            "target" : 34962
        },
        {
            "buffer" : 0,
            "byteLength" : 122280,
            "byteOffset" : 418172,
            "target" : 34963
        },
        {
            "buffer" : 0,
            "byteLength" : 7440,
            "byteOffset" : 540452,
            "target" : 34962
        },
        {
            "buffer" : 0,
            "byteLength" : 7440,
            "byteOffset" : 547892,
            "target" : 34962
        },
        {
            "buffer" : 0,
            "byteLength" : 1680,
            "byteOffset" : 555332,
            "target" : 34963
        },
        {
            "buffer" : 0,
            "byteLength" : 7224,
            "byteOffset" : 557012,
            "target" : 34962
        },
        {
            "buffer" : 0,
            "byteLength" : 7224,
            "byteOffset" : 564236,
            "target" : 34962
        },
        {
            "buffer" : 0,
            "byteLength" : 1728,
            "byteOffset" : 571460,
            "target" : 34963
        },
        {
            "buffer" : 0,
            "byteLength" : 31536,
            "byteOffset" : 573188,
            "target" : 34962
        },
        {
            "buffer" : 0,
            "byteLength" : 21024,
            "byteOffset" : 604724,
            "target" : 34962
        },
        {
            "buffer" : 0,
            "byteLength" : 31536,
            "byteOffset" : 625748,
            "target" : 34962
        },
        {
            "buffer" : 0,
            "byteLength" : 21000,
            "byteOffset" : 657284,
            "target" : 34963
        },
        {
            "buffer" : 0,
            "byteLength" : 217536,
            "byteOffset" : 678284,
            "target" : 34962
        },
        {
            "buffer" : 0,
            "byteLength" : 145024,
            "byteOffset" : 895820,
            "target" : 34962
        },
        {
            "buffer" : 0,
            "byteLength" : 217536,
            "byteOffset" : 1040844,
            "target" : 34962
        },
        {
            "buffer" : 0,
            "byteLength" : 195336,
            "byteOffset" : 1258380,
            "target" : 34963
        },
        {
            "buffer" : 0,
            "byteLength" : 217536,
            "byteOffset" : 1453716,
            "target" : 34962
        },
        {
            "buffer" : 0,
            "byteLength" : 145024,
            "byteOffset" : 1671252,
            "target" : 34962
        },
        {
            "buffer" : 0,
            "byteLength" : 217536,
            "byteOffset" : 1816276,
            "target" : 34962
        },
        {
            "buffer" : 0,
            "byteLength" : 195336,
            "byteOffset" : 2033812,
            "target" : 34963
        }
    ],
    "buffers" : [
        {
            "byteLength" : 2229148,
            "uri" : "data:application/octet-stream;base64,"
        }
    ]
}
